<?xml version="1.0" encoding="UTF-8" standalone="no"?>
<!DOCTYPE svg PUBLIC "-//W3C//DTD SVG 1.1//EN"
 "http://www.w3.org/Graphics/SVG/1.1/DTD/svg11.dtd">
<!-- Generated by graphviz version 12.2.1 (0)
 -->
<!-- Pages: 1 -->
<svg width="281pt" height="406pt"
 viewBox="0.00 0.00 280.96 406.00" xmlns="http://www.w3.org/2000/svg" xmlns:xlink="http://www.w3.org/1999/xlink">
<g id="graph0" class="graph" transform="scale(1 1) rotate(0) translate(4 402)">
<polygon fill="white" stroke="none" points="-4,4 -4,-402 276.96,-402 276.96,4 -4,4"/>
<!-- fund -->
<g id="node1" class="node">
<title>fund</title>
<polygon fill="lightBlue" stroke="black" points="225.11,-398 47.86,-398 47.86,-362 225.11,-362 225.11,-398"/>
<text text-anchor="middle" x="136.48" y="-374.95" font-family="Times,serif" font-size="14.00">Real Estate Owning GP, LLC</text>
</g>
<!-- LP 1 -->
<g id="node2" class="node">
<title>LP 1</title>
<polygon fill="none" stroke="black" points="71.48,-309.5 14.84,-272.75 128.12,-272.75 71.48,-309.5"/>
<text text-anchor="middle" x="71.48" y="-279.95" font-family="Times,serif" font-size="14.00">LP 1</text>
</g>
<!-- fund&#45;&gt;LP 1 -->
<g id="edge1" class="edge">
<title>fund&#45;&gt;LP 1</title>
<path fill="none" stroke="black" d="M124.26,-361.51C114.45,-347.48 100.54,-327.58 89.47,-311.73"/>
<polygon fill="black" stroke="black" points="92.46,-309.91 83.87,-303.72 86.73,-313.92 92.46,-309.91"/>
<text text-anchor="middle" x="120.34" y="-330.7" font-family="Times,serif" font-size="14.00">GP</text>
</g>
<!-- LP 2 -->
<g id="node6" class="node">
<title>LP 2</title>
<polygon fill="none" stroke="black" points="202.48,-309.5 145.84,-272.75 259.12,-272.75 202.48,-309.5"/>
<text text-anchor="middle" x="202.48" y="-279.95" font-family="Times,serif" font-size="14.00">LP 2</text>
</g>
<!-- fund&#45;&gt;LP 2 -->
<g id="edge5" class="edge">
<title>fund&#45;&gt;LP 2</title>
<path fill="none" stroke="black" d="M148.9,-361.51C158.85,-347.48 172.97,-327.58 184.22,-311.73"/>
<polygon fill="black" stroke="black" points="186.98,-313.89 189.91,-303.71 181.27,-309.84 186.98,-313.89"/>
<text text-anchor="middle" x="180.09" y="-330.7" font-family="Times,serif" font-size="14.00">GP</text>
</g>
<!-- LP 4 -->
<g id="node3" class="node">
<title>LP 4</title>
<polygon fill="none" stroke="black" points="71.48,-208 14.84,-171.25 128.12,-171.25 71.48,-208"/>
<text text-anchor="middle" x="71.48" y="-178.45" font-family="Times,serif" font-size="14.00">LP 4</text>
</g>
<!-- LP 1&#45;&gt;LP 4 -->
<g id="edge2" class="edge">
<title>LP 1&#45;&gt;LP 4</title>
<path fill="none" stroke="black" d="M71.48,-272.59C71.48,-259.71 71.48,-238.15 71.48,-219.58"/>
<polygon fill="black" stroke="black" points="74.98,-219.73 71.48,-209.73 67.98,-219.73 74.98,-219.73"/>
</g>
<!-- Aggregator, LP -->
<g id="node4" class="node">
<title>Aggregator, LP</title>
<polygon fill="none" stroke="black" points="136.48,-122 0,-85.25 272.96,-85.25 136.48,-122"/>
<text text-anchor="middle" x="136.48" y="-92.45" font-family="Times,serif" font-size="14.00">Aggregator, LP</text>
</g>
<!-- LP 4&#45;&gt;Aggregator, LP -->
<g id="edge3" class="edge">
<title>LP 4&#45;&gt;Aggregator, LP</title>
<path fill="none" stroke="black" d="M80.52,-170.82C89.24,-159.55 102.8,-142.03 114.38,-127.06"/>
<polygon fill="black" stroke="black" points="117,-129.4 120.35,-119.34 111.46,-125.11 117,-129.4"/>
</g>
<!-- reit -->
<g id="node5" class="node">
<title>reit</title>
<ellipse fill="none" stroke="black" cx="136.48" cy="-18" rx="27" ry="18"/>
<text text-anchor="middle" x="136.48" y="-12.95" font-family="Times,serif" font-size="14.00">Reit</text>
</g>
<!-- Aggregator, LP&#45;&gt;reit -->
<g id="edge4" class="edge">
<title>Aggregator, LP&#45;&gt;reit</title>
<path fill="none" stroke="black" d="M136.48,-85.06C136.48,-75.2 136.48,-60.53 136.48,-47.52"/>
<polygon fill="black" stroke="black" points="139.98,-47.73 136.48,-37.73 132.98,-47.73 139.98,-47.73"/>
</g>
<!-- LP 3 -->
<g id="node7" class="node">
<title>LP 3</title>
<polygon fill="none" stroke="black" points="202.48,-208 145.84,-171.25 259.12,-171.25 202.48,-208"/>
<text text-anchor="middle" x="202.48" y="-178.45" font-family="Times,serif" font-size="14.00">LP 3</text>
</g>
<!-- LP 2&#45;&gt;LP 3 -->
<g id="edge6" class="edge">
<title>LP 2&#45;&gt;LP 3</title>
<path fill="none" stroke="black" d="M202.48,-272.59C202.48,-259.71 202.48,-238.15 202.48,-219.58"/>
<polygon fill="black" stroke="black" points="205.98,-219.73 202.48,-209.73 198.98,-219.73 205.98,-219.73"/>
<text text-anchor="middle" x="211.11" y="-229.2" font-family="Times,serif" font-size="14.00">GP</text>
</g>
<!-- LP 3&#45;&gt;Aggregator, LP -->
<g id="edge7" class="edge">
<title>LP 3&#45;&gt;Aggregator, LP</title>
<path fill="none" stroke="black" d="M193.31,-170.82C184.45,-159.55 170.68,-142.03 158.92,-127.06"/>
<polygon fill="black" stroke="black" points="161.79,-125.04 152.85,-119.34 156.28,-129.36 161.79,-125.04"/>
</g>
</g>
</svg>
