<?xml version="1.0" encoding="UTF-8" standalone="no"?>
<!DOCTYPE svg PUBLIC "-//W3C//DTD SVG 1.1//EN"
 "http://www.w3.org/Graphics/SVG/1.1/DTD/svg11.dtd">
<!-- Generated by graphviz version 12.2.1 (0)
 -->
<!-- Pages: 1 -->
<svg width="292pt" height="206pt"
 viewBox="0.00 0.00 291.90 205.50" xmlns="http://www.w3.org/2000/svg" xmlns:xlink="http://www.w3.org/1999/xlink">
<g id="graph0" class="graph" transform="scale(1 1) rotate(0) translate(4 201.5)">
<polygon fill="white" stroke="none" points="-4,4 -4,-201.5 287.9,-201.5 287.9,4 -4,4"/>
<!-- eaten -->
<g id="node1" class="node">
<title>eaten</title>
<ellipse fill="none" stroke="black" cx="82.1" cy="-179.5" rx="72.85" ry="18"/>
<text text-anchor="middle" x="82.1" y="-174.45" font-family="Times,serif" font-size="14.00">Have you eaten?</text>
</g>
<!-- eat -->
<g id="node2" class="node">
<title>eat</title>
<ellipse fill="none" stroke="black" cx="62.1" cy="-91" rx="62.1" ry="18"/>
<text text-anchor="middle" x="62.1" y="-85.95" font-family="Times,serif" font-size="14.00">Eat you idiot!</text>
</g>
<!-- eaten&#45;&#45;eat -->
<g id="edge1" class="edge">
<title>eaten&#45;&#45;eat</title>
<path fill="none" stroke="black" d="M78.15,-161.41C74.66,-146.34 69.61,-124.49 66.11,-109.35"/>
<text text-anchor="middle" x="82.14" y="-130.2" font-family="Times,serif" font-size="14.00">No</text>
</g>
<!-- slept -->
<g id="node3" class="node">
<title>slept</title>
<ellipse fill="none" stroke="black" cx="213.1" cy="-91" rx="70.8" ry="18"/>
<text text-anchor="middle" x="213.1" y="-85.95" font-family="Times,serif" font-size="14.00">Have you slept?</text>
</g>
<!-- eaten&#45;&#45;slept -->
<g id="edge2" class="edge">
<title>eaten&#45;&#45;slept</title>
<path fill="none" stroke="black" d="M106.74,-162.23C130.16,-146.77 165.19,-123.64 188.57,-108.2"/>
<text text-anchor="middle" x="169.46" y="-130.2" font-family="Times,serif" font-size="14.00">Yes</text>
</g>
<!-- sleep -->
<g id="node4" class="node">
<title>sleep</title>
<ellipse fill="none" stroke="black" cx="213.1" cy="-18" rx="50.84" ry="18"/>
<text text-anchor="middle" x="213.1" y="-12.95" font-family="Times,serif" font-size="14.00">Go to bed!</text>
</g>
<!-- slept&#45;&#45;sleep -->
<g id="edge3" class="edge">
<title>slept&#45;&#45;sleep</title>
<path fill="none" stroke="black" d="M213.1,-72.81C213.1,-61.65 213.1,-47.16 213.1,-36.03"/>
</g>
</g>
</svg>
