<?xml version="1.0" encoding="UTF-8" standalone="no"?>
<!DOCTYPE svg PUBLIC "-//W3C//DTD SVG 1.1//EN"
 "http://www.w3.org/Graphics/SVG/1.1/DTD/svg11.dtd">
<!-- Generated by graphviz version 12.2.1 (0)
 -->
<!-- Pages: 1 -->
<svg width="440pt" height="221pt"
 viewBox="0.00 0.00 439.63 221.00" xmlns="http://www.w3.org/2000/svg" xmlns:xlink="http://www.w3.org/1999/xlink">
<g id="graph0" class="graph" transform="scale(1 1) rotate(0) translate(4 217)">
<polygon fill="white" stroke="none" points="-4,4 -4,-217 435.63,-217 435.63,4 -4,4"/>
<!-- Are you hydrated? -->
<g id="node1" class="node">
<title>Are you hydrated?</title>
<ellipse fill="none" stroke="black" cx="194.32" cy="-195" rx="80.01" ry="18"/>
<text text-anchor="middle" x="194.32" y="-189.95" font-family="Times,serif" font-size="14.00">Are you hydrated?</text>
</g>
<!-- Have a glass of water. -->
<g id="node2" class="node">
<title>Have a glass of water.</title>
<ellipse fill="none" stroke="black" cx="93.32" cy="-106.5" rx="93.32" ry="18"/>
<text text-anchor="middle" x="93.32" y="-101.45" font-family="Times,serif" font-size="14.00">Have a glass of water.</text>
</g>
<!-- Are you hydrated?&#45;&gt;Have a glass of water. -->
<g id="edge1" class="edge">
<title>Are you hydrated?&#45;&gt;Have a glass of water.</title>
<path fill="none" stroke="black" d="M174.85,-177.32C159.71,-164.36 138.51,-146.2 121.52,-131.66"/>
<polygon fill="black" stroke="black" points="124.1,-129.25 114.23,-125.41 119.55,-134.57 124.1,-129.25"/>
<text text-anchor="middle" x="161.12" y="-145.7" font-family="Times,serif" font-size="14.00">No</text>
</g>
<!-- eaten -->
<g id="node3" class="node">
<title>eaten</title>
<ellipse fill="none" stroke="black" cx="295.32" cy="-106.5" rx="72.85" ry="18"/>
<text text-anchor="middle" x="295.32" y="-101.45" font-family="Times,serif" font-size="14.00" fill="blue">Have you eaten?</text>
</g>
<!-- Are you hydrated?&#45;&gt;eaten -->
<g id="edge3" class="edge">
<title>Are you hydrated?&#45;&gt;eaten</title>
<path fill="none" stroke="black" d="M213.79,-177.32C229.02,-164.28 250.4,-145.97 267.44,-131.37"/>
<polygon fill="black" stroke="black" points="269.44,-134.27 274.76,-125.11 264.88,-128.96 269.44,-134.27"/>
<text text-anchor="middle" x="263.99" y="-145.7" font-family="Times,serif" font-size="14.00">Yes</text>
</g>
<!-- Have a glass of water.&#45;&gt;eaten -->
<g id="edge2" class="edge">
<title>Have a glass of water.&#45;&gt;eaten</title>
<path fill="none" stroke="black" d="M186.82,-106.5C194.79,-106.5 202.76,-106.5 210.73,-106.5"/>
<polygon fill="black" stroke="black" points="210.49,-110 220.49,-106.5 210.49,-103 210.49,-110"/>
</g>
<!-- Have a bite -->
<g id="node4" class="node">
<title>Have a bite</title>
<ellipse fill="none" stroke="black" cx="200.32" cy="-18" rx="53.4" ry="18"/>
<text text-anchor="middle" x="200.32" y="-12.95" font-family="Times,serif" font-size="14.00">Have a bite</text>
</g>
<!-- eaten&#45;&gt;Have a bite -->
<g id="edge4" class="edge">
<title>eaten&#45;&gt;Have a bite</title>
<path fill="none" stroke="black" d="M277,-88.82C262.72,-75.82 242.68,-57.57 226.68,-43"/>
<polygon fill="black" stroke="black" points="229.13,-40.5 219.38,-36.35 224.42,-45.67 229.13,-40.5"/>
<text text-anchor="middle" x="264.58" y="-57.2" font-family="Times,serif" font-size="14.00">No</text>
</g>
<!-- Are you sleepy? -->
<g id="node5" class="node">
<title>Are you sleepy?</title>
<ellipse fill="none" stroke="black" cx="360.32" cy="-18" rx="71.31" ry="18"/>
<text text-anchor="middle" x="360.32" y="-12.95" font-family="Times,serif" font-size="14.00">Are you sleepy?</text>
</g>
<!-- eaten&#45;&gt;Are you sleepy? -->
<g id="edge6" class="edge">
<title>eaten&#45;&gt;Are you sleepy?</title>
<path fill="none" stroke="black" d="M308.16,-88.41C317.42,-76.09 330.09,-59.23 340.62,-45.21"/>
<polygon fill="black" stroke="black" points="343.39,-47.36 346.6,-37.26 337.79,-43.16 343.39,-47.36"/>
<text text-anchor="middle" x="343.77" y="-57.2" font-family="Times,serif" font-size="14.00">Yes</text>
</g>
<!-- Have a bite&#45;&gt;Are you sleepy? -->
<g id="edge5" class="edge">
<title>Have a bite&#45;&gt;Are you sleepy?</title>
<path fill="none" stroke="black" d="M254.07,-18C261.78,-18 269.5,-18 277.21,-18"/>
<polygon fill="black" stroke="black" points="277,-21.5 287,-18 277,-14.5 277,-21.5"/>
</g>
</g>
</svg>
