<?xml version="1.0" encoding="UTF-8" standalone="no"?>
<!DOCTYPE svg PUBLIC "-//W3C//DTD SVG 1.1//EN"
 "http://www.w3.org/Graphics/SVG/1.1/DTD/svg11.dtd">
<!-- Generated by graphviz version 9.0.0 (0)
 -->
<!-- Title: Foul Mood Guide Pages: 1 -->
<svg width="980pt" height="690pt"
 viewBox="0.00 0.00 980.19 690.00" xmlns="http://www.w3.org/2000/svg" xmlns:xlink="http://www.w3.org/1999/xlink">
<g id="graph0" class="graph" transform="scale(1 1) rotate(0) translate(4 686)">
<title>Foul Mood Guide</title>
<polygon fill="white" stroke="none" points="-4,4 -4,-686 976.19,-686 976.19,4 -4,4"/>
<!-- Start -->
<g id="node1" class="node">
<title>Start</title>
<ellipse fill="none" stroke="black" cx="740.33" cy="-664" rx="80.01" ry="18"/>
<text text-anchor="middle" x="740.33" y="-658.95" font-family="Times,serif" font-size="14.00">Are you hydrated?</text>
</g>
<!-- HydrationYes -->
<g id="node2" class="node">
<title>HydrationYes</title>
<ellipse fill="none" stroke="black" cx="705.33" cy="-575.5" rx="27" ry="18"/>
<text text-anchor="middle" x="705.33" y="-570.45" font-family="Times,serif" font-size="14.00">Yes</text>
</g>
<!-- Start&#45;&gt;HydrationYes -->
<g id="edge1" class="edge">
<title>Start&#45;&gt;HydrationYes</title>
<path fill="none" stroke="black" d="M733.41,-645.91C728.54,-633.87 721.91,-617.49 716.32,-603.67"/>
<polygon fill="black" stroke="black" points="719.67,-602.62 712.68,-594.66 713.18,-605.25 719.67,-602.62"/>
<text text-anchor="middle" x="736.45" y="-614.7" font-family="Times,serif" font-size="14.00">Yes</text>
</g>
<!-- HydrationNo -->
<g id="node3" class="node">
<title>HydrationNo</title>
<ellipse fill="none" stroke="black" cx="829.33" cy="-575.5" rx="27" ry="18"/>
<text text-anchor="middle" x="829.33" y="-570.45" font-family="Times,serif" font-size="14.00">No</text>
</g>
<!-- Start&#45;&gt;HydrationNo -->
<g id="edge2" class="edge">
<title>Start&#45;&gt;HydrationNo</title>
<path fill="none" stroke="black" d="M757.49,-646.32C771.47,-632.74 791.32,-613.44 806.62,-598.57"/>
<polygon fill="black" stroke="black" points="808.76,-601.37 813.5,-591.89 803.88,-596.35 808.76,-601.37"/>
<text text-anchor="middle" x="801.58" y="-614.7" font-family="Times,serif" font-size="14.00">No</text>
</g>
<!-- Eaten -->
<g id="node5" class="node">
<title>Eaten</title>
<ellipse fill="none" stroke="black" cx="576.33" cy="-502.5" rx="143.99" ry="18"/>
<text text-anchor="middle" x="576.33" y="-497.45" font-family="Times,serif" font-size="14.00">Have you eaten in the past 3 hours?</text>
</g>
<!-- HydrationYes&#45;&gt;Eaten -->
<g id="edge4" class="edge">
<title>HydrationYes&#45;&gt;Eaten</title>
<path fill="none" stroke="black" d="M684.89,-563.25C666.77,-553.28 639.78,-538.42 617.24,-526.02"/>
<polygon fill="black" stroke="black" points="619.02,-523.01 608.58,-521.25 615.65,-529.14 619.02,-523.01"/>
</g>
<!-- DrinkWater -->
<g id="node4" class="node">
<title>DrinkWater</title>
<ellipse fill="none" stroke="black" cx="855.33" cy="-502.5" rx="116.86" ry="18"/>
<text text-anchor="middle" x="855.33" y="-497.45" font-family="Times,serif" font-size="14.00">If not, have a glass of water.</text>
</g>
<!-- HydrationNo&#45;&gt;DrinkWater -->
<g id="edge3" class="edge">
<title>HydrationNo&#45;&gt;DrinkWater</title>
<path fill="none" stroke="black" d="M835.49,-557.67C838.34,-549.89 841.8,-540.43 845.03,-531.61"/>
<polygon fill="black" stroke="black" points="848.27,-532.96 848.42,-522.37 841.69,-530.55 848.27,-532.96"/>
</g>
<!-- EatenYes -->
<g id="node6" class="node">
<title>EatenYes</title>
<ellipse fill="none" stroke="black" cx="541.33" cy="-414" rx="27" ry="18"/>
<text text-anchor="middle" x="541.33" y="-408.95" font-family="Times,serif" font-size="14.00">Yes</text>
</g>
<!-- Eaten&#45;&gt;EatenYes -->
<g id="edge5" class="edge">
<title>Eaten&#45;&gt;EatenYes</title>
<path fill="none" stroke="black" d="M569.41,-484.41C564.54,-472.37 557.91,-455.99 552.32,-442.17"/>
<polygon fill="black" stroke="black" points="555.67,-441.12 548.68,-433.16 549.18,-443.75 555.67,-441.12"/>
<text text-anchor="middle" x="572.45" y="-453.2" font-family="Times,serif" font-size="14.00">Yes</text>
</g>
<!-- EatenNo -->
<g id="node7" class="node">
<title>EatenNo</title>
<ellipse fill="none" stroke="black" cx="684.33" cy="-414" rx="27" ry="18"/>
<text text-anchor="middle" x="684.33" y="-408.95" font-family="Times,serif" font-size="14.00">No</text>
</g>
<!-- Eaten&#45;&gt;EatenNo -->
<g id="edge6" class="edge">
<title>Eaten&#45;&gt;EatenNo</title>
<path fill="none" stroke="black" d="M597.66,-484.41C615.23,-470.34 640.18,-450.36 658.8,-435.44"/>
<polygon fill="black" stroke="black" points="660.83,-438.3 666.45,-429.32 656.46,-432.84 660.83,-438.3"/>
<text text-anchor="middle" x="648.58" y="-453.2" font-family="Times,serif" font-size="14.00">No</text>
</g>
<!-- Showered -->
<g id="node9" class="node">
<title>Showered</title>
<ellipse fill="none" stroke="black" cx="362.33" cy="-341" rx="145.52" ry="18"/>
<text text-anchor="middle" x="362.33" y="-335.95" font-family="Times,serif" font-size="14.00">Have you showered in the past day?</text>
</g>
<!-- EatenYes&#45;&gt;Showered -->
<g id="edge8" class="edge">
<title>EatenYes&#45;&gt;Showered</title>
<path fill="none" stroke="black" d="M518.66,-404.01C492.65,-393.69 449.17,-376.44 414.65,-362.75"/>
<polygon fill="black" stroke="black" points="416.25,-359.62 405.66,-359.19 413.67,-366.13 416.25,-359.62"/>
</g>
<!-- EatFood -->
<g id="node8" class="node">
<title>EatFood</title>
<ellipse fill="none" stroke="black" cx="720.33" cy="-341" rx="194.66" ry="18"/>
<text text-anchor="middle" x="720.33" y="-335.95" font-family="Times,serif" font-size="14.00">If not, get some food with protein, not just carbs.</text>
</g>
<!-- EatenNo&#45;&gt;EatFood -->
<g id="edge7" class="edge">
<title>EatenNo&#45;&gt;EatFood</title>
<path fill="none" stroke="black" d="M692.68,-396.53C696.74,-388.52 701.73,-378.68 706.35,-369.57"/>
<polygon fill="black" stroke="black" points="709.44,-371.22 710.84,-360.72 703.19,-368.05 709.44,-371.22"/>
</g>
<!-- ShoweredYes -->
<g id="node10" class="node">
<title>ShoweredYes</title>
<ellipse fill="none" stroke="black" cx="327.33" cy="-252.5" rx="27" ry="18"/>
<text text-anchor="middle" x="327.33" y="-247.45" font-family="Times,serif" font-size="14.00">Yes</text>
</g>
<!-- Showered&#45;&gt;ShoweredYes -->
<g id="edge9" class="edge">
<title>Showered&#45;&gt;ShoweredYes</title>
<path fill="none" stroke="black" d="M355.41,-322.91C350.54,-310.87 343.91,-294.49 338.32,-280.67"/>
<polygon fill="black" stroke="black" points="341.67,-279.62 334.68,-271.66 335.18,-282.25 341.67,-279.62"/>
<text text-anchor="middle" x="358.45" y="-291.7" font-family="Times,serif" font-size="14.00">Yes</text>
</g>
<!-- ShoweredNo -->
<g id="node11" class="node">
<title>ShoweredNo</title>
<ellipse fill="none" stroke="black" cx="457.33" cy="-252.5" rx="27" ry="18"/>
<text text-anchor="middle" x="457.33" y="-247.45" font-family="Times,serif" font-size="14.00">No</text>
</g>
<!-- Showered&#45;&gt;ShoweredNo -->
<g id="edge10" class="edge">
<title>Showered&#45;&gt;ShoweredNo</title>
<path fill="none" stroke="black" d="M381.1,-322.91C396.06,-309.28 417.12,-290.11 433.31,-275.36"/>
<polygon fill="black" stroke="black" points="435.58,-278.03 440.62,-268.71 430.87,-272.86 435.58,-278.03"/>
<text text-anchor="middle" x="427.58" y="-291.7" font-family="Times,serif" font-size="14.00">No</text>
</g>
<!-- Stretched -->
<g id="node13" class="node">
<title>Stretched</title>
<ellipse fill="none" stroke="black" cx="180.33" cy="-179.5" rx="180.33" ry="18"/>
<text text-anchor="middle" x="180.33" y="-174.45" font-family="Times,serif" font-size="14.00">Have you stretched your legs in the past day?</text>
</g>
<!-- ShoweredYes&#45;&gt;Stretched -->
<g id="edge12" class="edge">
<title>ShoweredYes&#45;&gt;Stretched</title>
<path fill="none" stroke="black" d="M305.95,-241.18C285.07,-231.09 252.63,-215.42 225.95,-202.54"/>
<polygon fill="black" stroke="black" points="227.56,-199.43 217.03,-198.23 224.51,-205.73 227.56,-199.43"/>
</g>
<!-- TakeShower -->
<g id="node12" class="node">
<title>TakeShower</title>
<ellipse fill="none" stroke="black" cx="486.33" cy="-179.5" rx="108.16" ry="18"/>
<text text-anchor="middle" x="486.33" y="-174.45" font-family="Times,serif" font-size="14.00">If not, take a shower now.</text>
</g>
<!-- ShoweredNo&#45;&gt;TakeShower -->
<g id="edge11" class="edge">
<title>ShoweredNo&#45;&gt;TakeShower</title>
<path fill="none" stroke="black" d="M464.2,-234.67C467.41,-226.8 471.33,-217.22 474.97,-208.31"/>
<polygon fill="black" stroke="black" points="478.09,-209.93 478.63,-199.35 471.61,-207.28 478.09,-209.93"/>
</g>
<!-- StretchedYes -->
<g id="node14" class="node">
<title>StretchedYes</title>
<ellipse fill="none" stroke="black" cx="159.33" cy="-91" rx="27" ry="18"/>
<text text-anchor="middle" x="159.33" y="-85.95" font-family="Times,serif" font-size="14.00">Yes</text>
</g>
<!-- Stretched&#45;&gt;StretchedYes -->
<g id="edge13" class="edge">
<title>Stretched&#45;&gt;StretchedYes</title>
<path fill="none" stroke="black" d="M176.18,-161.41C173.3,-149.56 169.41,-133.52 166.09,-119.84"/>
<polygon fill="black" stroke="black" points="169.58,-119.42 163.82,-110.52 162.78,-121.07 169.58,-119.42"/>
<text text-anchor="middle" x="182.45" y="-130.2" font-family="Times,serif" font-size="14.00">Yes</text>
</g>
<!-- StretchedNo -->
<g id="node15" class="node">
<title>StretchedNo</title>
<ellipse fill="none" stroke="black" cx="231.33" cy="-91" rx="27" ry="18"/>
<text text-anchor="middle" x="231.33" y="-85.95" font-family="Times,serif" font-size="14.00">No</text>
</g>
<!-- Stretched&#45;&gt;StretchedNo -->
<g id="edge14" class="edge">
<title>Stretched&#45;&gt;StretchedNo</title>
<path fill="none" stroke="black" d="M190.4,-161.41C197.74,-148.97 207.8,-131.9 216.11,-117.81"/>
<polygon fill="black" stroke="black" points="218.96,-119.87 221.02,-109.48 212.93,-116.32 218.96,-119.87"/>
<text text-anchor="middle" x="219.58" y="-130.2" font-family="Times,serif" font-size="14.00">No</text>
</g>
<!-- DoStretch -->
<g id="node16" class="node">
<title>DoStretch</title>
<ellipse fill="none" stroke="black" cx="231.33" cy="-18" rx="150.64" ry="18"/>
<text text-anchor="middle" x="231.33" y="-12.95" font-family="Times,serif" font-size="14.00">If not, go for a walk or move around.</text>
</g>
<!-- StretchedNo&#45;&gt;DoStretch -->
<g id="edge15" class="edge">
<title>StretchedNo&#45;&gt;DoStretch</title>
<path fill="none" stroke="black" d="M231.33,-72.81C231.33,-65.23 231.33,-56.1 231.33,-47.54"/>
<polygon fill="black" stroke="black" points="234.83,-47.54 231.33,-37.54 227.83,-47.54 234.83,-47.54"/>
</g>
</g>
</svg>
